<?xml version="1.0" encoding="utf-8"?>
<!-- Generator: Adobe Illustrator 17.1.0, SVG Export Plug-In . SVG Version: 6.00 Build 0)  -->
<!DOCTYPE svg PUBLIC "-//W3C//DTD SVG 1.1//EN" "http://www.w3.org/Graphics/SVG/1.1/DTD/svg11.dtd">
<svg version="1.1" id="Layer_1" xmlns="http://www.w3.org/2000/svg" xmlns:xlink="http://www.w3.org/1999/xlink" x="0px" y="0px"
	 viewBox="0 0 800 800" enable-background="new 0 0 800 800" xml:space="preserve">
<path fill="#FFFFFF" d="M66.6,58.6C30,58.6,0,88.5,0,125.2v533c0,36.6,30,66.6,66.6,66.6h16.7v16.7h83.3v-16.7h466.4v16.7h83.3
	v-16.7h16.7c36.6,0,66.6-30,66.6-66.6v-533c0-36.6-30-66.6-66.6-66.6H66.6z M66.6,91.9h666.2c18.6,0,33.3,14.7,33.3,33.3v533
	c0,18.6-14.7,33.3-33.3,33.3h-16.7h-83.3H166.6H83.3H66.6c-18.6,0-33.3-14.7-33.3-33.3v-533C33.3,106.5,48,91.9,66.6,91.9z
	 M96.8,141.8c-7.9,1.6-13.6,8.5-13.5,16.7v194.7c-1,3.2-1,6.7,0,9.9v58.8c0,0.5,0,1,0,1.6c-0.1,1.2-0.1,2.4,0,3.6c0,0.5,0,1,0,1.6
	v196.2c0,9.2,7.5,16.7,16.7,16.7h599.6c9.2,0,16.7-7.5,16.7-16.7V158.5c0-9.2-7.5-16.7-16.7-16.7H99.9c-0.5,0-1,0-1.6,0
	C97.9,141.8,97.3,141.8,96.8,141.8z M116.6,175.1h566.3v433.1H116.6V432.3l28.6-28.6c6.7-6.4,6.8-17,0.4-23.5
	c-0.1-0.1-0.2-0.3-0.4-0.4l-28.6-28.6V175.1z M398.2,207.9c-0.7,0.1-1.4,0.3-2.1,0.5c-0.5,0.1-1,0.3-1.6,0.5
	c-46,1.4-87.7,19.7-119.2,48.9c-4.3,1.7-7.7,5.1-9.4,9.4c-28.6,30.8-46.9,71.3-48.9,116.1c-2.9,5.2-2.9,11.5,0,16.7
	c2,44.1,19.5,84.4,47.4,115c1.6,5.8,6.1,10.4,12,12c31.4,28.7,73.1,46.2,118.7,47.4c0.5,0.2,1,0.4,1.6,0.5c1,0,2.1,0,3.1,0
	c1.2,0,2.4,0,3.6,0c0.5-0.1,1-0.3,1.6-0.5c45.4-1.2,86.8-18.7,118.2-47.4c6-1.6,10.6-6.5,12-12.5c28.5-31.4,46.2-72.8,47.4-118.2
	c0.2-0.3,0.3-0.7,0.5-1c0-0.2,0-0.3,0-0.5c0.1-1,0.1-2.1,0-3.1c0-0.7,0-1.4,0-2.1c-0.1-1-0.2-2.1-0.5-3.1
	c-1.4-46.6-19.9-89.1-50-120.8c-0.2-0.2-0.3-0.3-0.5-0.5c-0.3-0.3-0.2-0.7-0.5-1c-1.4-1.9-3.1-3.5-5.2-4.7
	c-31.5-30.1-73.7-48.9-120.2-50.5C403.5,208,400.8,207.6,398.2,207.9z M383.1,242.3c0.1,9.2,7.7,16.6,16.9,16.4
	c9.1-0.1,16.3-7.4,16.4-16.4c29.1,3.1,55.4,15,77,32.3c-7.2,5.7-8.3,16.2-2.5,23.4c5.8,7.2,16.2,8.3,23.4,2.5
	c0.9-0.7,1.8-1.6,2.5-2.5c17.3,21.7,29.1,47.9,32.3,77c-0.3,0-0.7,0-1,0c-0.5,0-1,0-1.6,0c-9.2,1.1-15.6,9.6-14.5,18.7
	c1.1,8.5,8.4,14.8,17.1,14.6c-3.1,29.1-15,55.4-32.3,77c-3.4-3.3-8.2-5.1-13-4.7c-0.5,0-1,0-1.6,0c-9.1,1.7-15.1,10.3-13.4,19.4
	c0.6,3.3,2.2,6.4,4.6,8.7c-21.7,17.3-47.9,29.1-77,32.3c0-9.2-7.4-16.7-16.6-16.8c-0.5,0-1,0-1.7,0.1c-0.7,0.1-1.4,0.3-2.1,0.5
	c-7.6,1.7-12.9,8.4-13,16.1c-29.1-3.1-55.4-15-77-32.3c6.4-6.7,6-17.2-0.6-23.5c-3.2-3-7.5-4.7-11.9-4.6c-0.5,0-1,0-1.6,0
	c-3.5,0.5-6.9,2.2-9.4,4.7c-17.3-21.7-29.1-47.9-32.3-77c9.2-0.1,16.6-7.7,16.4-16.9c-0.1-9.1-7.4-16.3-16.4-16.4
	c3.1-29.1,15-55.4,32.3-77c5.7,7.2,16.2,8.3,23.4,2.5c7.2-5.8,8.3-16.2,2.5-23.4c-0.7-0.9-1.6-1.8-2.5-2.5
	C327.7,257.3,353.9,245.4,383.1,242.3z M399.7,308.4c-45.8,0-83.3,37.5-83.3,83.3s37.5,83.3,83.3,83.3s83.3-37.5,83.3-83.3
	S445.6,308.4,399.7,308.4z M399.7,341.7c27.8,0,50,22.2,50,50s-22.2,50-50,50c-27.8,0-50-22.2-50-50S372,341.7,399.7,341.7z"/>
</svg>
