<?xml version="1.0" encoding="utf-8"?>
<!-- Generator: Adobe Illustrator 21.1.0, SVG Export Plug-In . SVG Version: 6.00 Build 0)  -->
<svg version="1.1" id="Layer_1" xmlns="http://www.w3.org/2000/svg" xmlns:xlink="http://www.w3.org/1999/xlink" x="0px" y="0px"
	 viewBox="0 0 172 173" style="enable-background:new 0 0 172 173;" xml:space="preserve">
<style type="text/css">
	.st0{display:none;}
	.st1{display:inline;fill:#060807;}
	.st2{fill:#FEFEFB;}
</style>
<g id="layer101" class="st0">
	<path class="st1" d="M0,86.5V0h86h86v86.5V173H86H0V86.5z"/>
</g>
<g id="layer102">
	<path class="st2" d="M0.5,104c0.3-32.5,2.2-16.3,3.1-1.8c10.2,56.5,73.9,85.4,123.8,56.2c15.7-9.2,29.8-26.5,35.8-44.1
		c16.3-47.2-12.6-97.9-61.7-108.4c-7.7-1.6-25.3-1.6-33,0C35,13.1,9.6,46.7,3.8,80.3C2.1,94.2-0.5,90.5,3,61.2l11.3-23.5
		C28,14.6,20.1,27.6,32.8,17L49.7,3.2l39.7-2.9l22,3.2l13.3,2.3c-0.1,0.1,7.1,3.5,8.7,4.8c5,4.2,7.7,9.5,7.7,9.5
		c5.5,5.5,12.8,7.8,16.2,11.1c10.3,9.9,11.7,21.4,12.7,35.5l1,21.4l-2.5,26.1l-6.4,13.9c0,0.8-1.6,8.8-7.4,17.4
		c-3.8,5.6-9.4,11.5-17.6,15.9l-22.7,9.8L88,173l-29.5-2.3l-29.2-9.8c-5.3-3.6-10.4-9.7-14.6-15.7c-5.4-7.8-9.1-15.2-9.1-16
		l-2.1-10.3L0.5,104z"/>
	<path class="st2" d="M60.1,147.9c-3-0.5-5.7-1.1-5.9-1.4c-0.7-0.6,4.6-13.3,8.3-20c3.1-5.7,3.7-6.2,8.4-7.4
		c8.1-2.1,20-8.3,28.1-14.8c8.9-7.1,12.6-11.1,5.5-6c-2.8,1.9-8.3,5.1-12.4,7.1c-7.5,3.6-21.6,7.5-22.7,6.3
		c-1.1-1.1,10.2-15.2,17.7-22.1c6.4-5.9,19.9-15.9,23.2-17.2c1-0.3,1.7,0.4,2.1,2.3c0.4,1.5,1.8,4.5,3.2,6.5c1.3,2.1,2.4,4.3,2.4,5
		s2.3,3.3,5,5.6c6.5,5.6,14.1,16.4,17.1,24.3l1.8,4.7c0.3,0.9,0.1,1.9-0.6,2.5l-2.8,2.5c-8.4,7.3-20.8,14.4-32.1,18.3
		C93.4,148.5,73.7,150.1,60.1,147.9z"/>
	<path class="st2" d="M46.5,126.1c-1.3-2.2-4.4-17.6-3.6-18.4c1.2-1.2,1.5-0.5,4.1,8.2c1.2,4,2.4,7.9,2.6,8.6
		C50.2,125.9,47.3,127.4,46.5,126.1z"/>
	<path class="st2" d="M37.7,102.6c-2.9-4.3-5.8-14.9-6.2-22c-0.4-7.3-0.3-7,1.6,4.9c0.6,3.9,2.4,9.8,4,13.3
		C40,105.4,40.2,106.5,37.7,102.6z"/>
	<path class="st2" d="M39.5,98.8c-4.6-10-6.8-24.6-3.8-25.5c2.6-0.9,8,13.7,9,23.9c0.5,6,0.4,6.8-1.1,6.8
		C42.5,104,41,102.1,39.5,98.8z"/>
	<path class="st2" d="M74.1,83.2C74,83.1,74,83,73.9,82.9c-0.5-1.1-0.9-3-0.9-4.4s-0.5-4.6-1.1-7.1c-0.9-3.3-1.7-4.6-3.5-5
		c-2.8-0.7-2.7-0.6-1.3-3.8c1-2.2,2-2.5,7.8-3.1c3.6-0.3,9.1-1,12.1-1.4c5.4-0.9,5.7-0.8,11.8,3.2l3.5,2.3c1.3,0.9,1.4,2.9,0,3.8
		l0,0c-1.5,1.1-5.8,4.9-9.4,8.4c-5.3,5-7.8,6.6-12,7.8c-3,0.7-5.5,1.4-5.6,1.4C75.2,85,74.7,84.2,74.1,83.2z"/>
	<path class="st2" d="M108.5,62.5c-5.5-2.8-16.1-10-12-8.2c0.6,0.2,4.5,1.2,8.8,2.2c6.8,1.6,8,2.2,9.3,4.7c0.8,1.6,1.4,3.3,1.2,3.8
		C115.6,65.6,112.4,64.4,108.5,62.5z"/>
	<path class="st2" d="M61,55.3c0-0.5,1.3-2.2,3-3.8c3-2.9,4.4-3,13.9-1H78c1.4,0.2,3.9,0.7,5.4,1.1c6.6,1.3,7.2,1.7,3.5,2.5
		C81.1,55.5,61,56.4,61,55.3z"/>
	<path class="st2" d="M103.5,54c-14.9-3.8-29.4-7-31.4-7c-2.8,0-2.7-2,0.4-8.1C76,32.2,82.4,28,89.4,28c2.8,0,4.6-0.4,3.9-0.8
		c-0.6-0.4,0.7-0.8,2.9-0.8c4-0.1,4-0.1,1.7,1.2c-1.5,0.9-1.8,1.3-0.8,1.4c0.8,0,3.6,1.4,6.3,3c5.9,3.8,9.6,10.9,9.6,18.8
		C113,56.7,113.5,56.5,103.5,54z"/>
</g>
</svg>
