<?xml version="1.0" encoding="utf-8"?>
<!-- Generator: Adobe Illustrator 21.1.0, SVG Export Plug-In . SVG Version: 6.00 Build 0)  -->
<svg version="1.1" id="Ñëîé_1" xmlns="http://www.w3.org/2000/svg" xmlns:xlink="http://www.w3.org/1999/xlink" x="0px" y="0px"
	 viewBox="0 0 842 595" style="enable-background:new 0 0 842 595;" xml:space="preserve">
<style type="text/css">
	.st0{display:none;fill-rule:evenodd;clip-rule:evenodd;fill:#000003;}
	.st1{fill-rule:evenodd;clip-rule:evenodd;fill:#FFFFFF;}
</style>
<rect x="-95.1" y="-218.7" class="st0" width="1032.1" height="1032.1"/>
<path class="st1" d="M469.8,334.6c-25.4-25.4-10.9-41.6,7-46.4c23.8-6.4,35.4-4.3,38.2-14.8c12.9,3.1,10.3,11,26.9,15.8
	c10.5,3.5,22.9,4.8,26.7,11.4c-12.2,2.4-15.5,17.7-1.7,17.7c18.3,0,27.6-30.2,24.7-54.6c-0.5-4.3-3.6-6.1-6.6-5.8
	c-8.1,0.9-0.3,11.3-27,8.1c-9.8-1.2-24.6-5.7-35.5-16.7c48.2,9,60.6-44.5,28-53.2c3.8-1.6,7.3-2.6,10.5-3.3
	c33.5-6.7-15.4-50.3-59-33c0-10,5.2-14.9,12.2-18.9c3.5-2,5-7.8-0.7-10.8c-5.7-3.1-14.4-2.9-20.7-2.9c-26-0.3-40.3-20.1-52.7-20.1
	c-8.8,0-14,10.2,6.5,18.3c-5.8,3.3-26.5,6.2-53.5-9.3c-17.3-10-26.9-1.2-31.4,9c-12.3-45.9-80.1,43.7-45.8,43.7
	c6.6,0,17.2-11.1,19.7-19.4c9.4,16.2,36.3,23.1,48.8-5.4c12.5,0,20.5,26.7,44.7,9.3c13.4-9.6,33.6-3.7,40.7,8.6
	c-38.5-10.3-41.8,30.6-31,46.1c-26.9-3.4-14.3-39.2-75.2-24.5c-11.1,2.7-25.9-6-38-1.4c-8.5,3.3-9.4,13.6-2.5,17.5
	c-53.7,0-26,48.3-37.6,68c-1.5-13.2-11.1-16.4-16.6-36.7c-7.7-28.8,7.4-37.7,7.4-62.9c0-51.7,52.4-98.5,123.9-76.7
	c15.9-9.2,33-14.3,50.8-6.7c5.9,2.5,11.1,6.1,16.4,9.7c4,2.8,8.6,6,13.2,7.6c4.6,1.6,10,2.1,14.9,2.6c6.3,0.7,12.5,1.3,18.6,2.9
	c16.4,4.3,27,14.1,34.1,29.1c39.7,9.2,58.3,48,51.4,85.3c23.7,13.7,24.1,110.4-24.4,120.9c-14.1,3-27.1-2.2-37.6-11.4
	c-15.3-4.8-23.9,6-23.5,20c0.1,4.5,2.2,10.2,4.8,14.8c-19.5,0-31.3-17.1-31.3-29.7c0-14.5,17.8-34.2,1.4-34.2
	c-5.6,0-12.3,3.7-15.9,13.6C471,321.3,469.8,327.7,469.8,334.6L469.8,334.6z M362.9,296.3L362.9,296.3c-12.8,0-25.6-6.5-31.9-17
	c-3.1-5.2-4.9-12.4-4.9-24.6c0-21.4,23-34.8,47.9-23.3c27.7,12.8,27.8,36.7,55.3,47.4c-7.7-9.2,1.3-17.3,13.8-13.2
	c21.4,7.1,39.2-6.3,49.4-21.1c7-10.3,21.3-21,35.7-12.6c0-22-29.5-7.2-25.7-28.1c1.1-6.3,5-13.6,10-17.8c-4.8-1.3-24-1-21.2,11.6
	c2.8,12.8-7.9,16.6-18.4,3.3c-4.6-5.7-11.5-12.2-18.1-10.4c8.6,6.8,7.8,22.5,12,34.6c4.3,12.5-7.6,19.6-16,20.8
	c-12.6,1.8-25.4-1.7-33.9-14c-9.4-13.7-22.3-22.8-32.1-25.5c-6.6,11.4-9.5,3.2-27.3,3.2c-29.5,0-49.8,27.2-49.8,59.7
	c0,16.1-6.5,25-15.9,25c-30.2,0-20.3-32.1-37.5-42c-18-10.4-15.5-52.9,1.9-86.9c-20.1,20.1-31.9,54-29.4,82.3
	c1.5,16.5,14.7,14.7,21.6,36.3c10.5,32.7,40.6,45.9,88,36.7c22.7,18.6,47.5,33.4,78.5,26.5c20.5,19.1,35.2,18.2,59.5,18.5
	c-37.7-13-29.2-36-54.7-61.4c-33.5-33.5-39.5-22.8-49.8-50c-16.3,16.3,7.1,27.2,12.3,32.3c30.6,30.6,0.5,53.4-19.3,25
	C358.7,305.4,356.7,302.4,362.9,296.3z"/>
<path class="st1" d="M598.6,471.3h33.9c8,0,8,17.6,0,17.6h-48.3c-4,0-5.1-4.6-5.1-7.8v-30.6v-17.1v-20.9v-9.2
	c6.3-0.3,11.2,0.3,14.6,1.9c3.4,1.6,4.9,5,4.9,10.2v0.3v7.5v27.3V471.3L598.6,471.3z M672.8,420.3L672.8,420.3v7.4v3.1v7
	c6.5-2.6,17.7-1.7,25.1-1.7c8,0,8,17.7,0,17.7h-10.5c-13.4,0-14.7,3.2-14.7,10.8c1.4,6.3,7.2,8.7,17.5,7.3
	c8.9-1.1,13.6-1.6,22.8-1.6c-0.1,10.5-6.2,19-21.3,19.4c-25.6,0.7-38.4-7.6-38.4-24.9v-4.5V450v-39.9c0-3.1,1.2-7.6,5.1-7.6l33.3,0
	c14.3,0.3,20.5,9,21.3,18.7C701.4,423.4,681.3,421.4,672.8,420.3L672.8,420.3z M339.2,421.1L339.2,421.1v7.4v3.1v7
	c6.5-2.6,17.7-1.7,25.1-1.7c8,0,8,17.7,0,17.7h-10.5c-13.4,0-14.7,3.2-14.7,10.8c1.4,6.3,7.2,8.7,17.5,7.3
	c8.9-1.1,13.6-1.5,22.8-1.5c-0.1,10.5-6.2,19-21.3,19.4c-25.6,0.7-38.4-7.6-38.4-24.9v-4.5v-10.3V411c0-3.1,1.2-7.6,5.1-7.6l33.3,0
	c14.3,0.3,20.5,9,21.3,18.7C367.8,424.2,347.7,422.3,339.2,421.1L339.2,421.1z M558.3,413.6L558.3,413.6v4.7l-5.4,5.5
	c0,0.1-0.1,0.1-0.2,0.2c-14.9,14.3-27.7,29.9-38.9,47.2l4.5-0.3c9.3-0.6,22.4-0.2,31.6-0.2c1.6,0,3,0.2,4.3,0.6
	c0.5,0.1,0.9,0.3,1.3,0.6c1.3,0.7,2.3,1.5,2.9,2.4c0.7,1,1.2,2.2,1.6,3.6c0.4,1.4,0.6,2.7,0.6,3.8s-0.1,2.3-0.2,3.6
	c-0.1,1.3-0.3,2.1-0.3,2.6c-0.1,0.5-0.2,0.8-0.3,1h-6.9h-51.8h-0.7c-2.4,0-4.5-0.5-6.2-1.6c-1.7-1.1-2.8-2.3-3.5-3.6
	c-0.7-1.3-1.1-2.8-1.3-4.5l-0.1-0.5V474c11.8-19.4,24.9-37.2,41.1-52.9l-4.5,0.3c-9.3,0.6-17.4,0.2-26.6,0.2c-2.1,0-3.8-0.4-5.2-1.1
	c-1.4-0.7-2.5-1.5-3.2-2.5c-0.7-1-1.2-2.2-1.6-3.6c-0.4-1.4-0.6-2.7-0.6-3.9c0-1.1,0.1-2.3,0.2-3.6c0.1-1.3,0.3-2.1,0.4-2.6
	c0.1-0.5,0.2-0.8,0.3-1h4h0.1h38.6h15.1c2.4,0,4.5,0.5,6.2,1.6c1.7,1.1,2.8,2.3,3.5,3.6c0.7,1.3,1.1,2.8,1.3,4.6L558.3,413.6
	L558.3,413.6z M206.8,498.7L206.8,498.7c0,0.2,0,0.4,0,0.7c0,0.6-0.2,1.1-0.4,1.6c-0.3,0.9-0.7,1.7-1.2,2.5
	c-2.6,3.7-7.3,7.3-14,10.7l-9-15.7c-2-2.7-3.7-5.7-5-8.6l-0.3-0.5c-2.5,0.4-5.1,0.5-7.7,0.5c-26.6,0-40.2-18.2-40.2-43.7
	c0-25.6,13.6-43.8,40.2-43.8c26.8,0,40.5,18.1,40.5,43.8c0,12.4-3.2,24.6-11.7,33.1l6.2,10.7C205.9,493.2,206.9,496.1,206.8,498.7
	L206.8,498.7z M149.3,446.2L149.3,446.2c0,13.2,4.9,26,19.9,26c15.1,0,20.2-12.6,20.2-26c0-13.4-5-26.1-20.2-26.1
	C154.1,420.1,149.3,432.9,149.3,446.2L149.3,446.2z M468,413.6L468,413.6v4.7l-5.4,5.5c0,0.1-0.1,0.1-0.2,0.2
	c-14.9,14.3-27.7,29.9-38.9,47.2l4.5-0.3c9.3-0.6,22.4-0.2,31.6-0.2c1.6,0,3,0.2,4.3,0.6c0.5,0.1,0.9,0.3,1.3,0.6
	c1.3,0.7,2.3,1.5,2.9,2.4c0.7,1,1.2,2.2,1.6,3.6c0.4,1.4,0.6,2.7,0.6,3.8s-0.1,2.3-0.2,3.6c-0.1,1.3-0.3,2.1-0.4,2.6
	c-0.1,0.5-0.2,0.8-0.3,1h-6.9h-51.8H410c-2.4,0-4.5-0.5-6.2-1.6c-1.7-1.1-2.8-2.3-3.5-3.6c-0.7-1.3-1.1-2.8-1.3-4.5l-0.1-0.5V474
	c11.8-19.4,24.9-37.2,41.1-52.9l-4.5,0.3c-9.3,0.6-17.4,0.2-26.6,0.2c-2.1,0-3.8-0.4-5.3-1.1c-1.4-0.7-2.5-1.5-3.2-2.5
	c-0.7-1-1.2-2.2-1.6-3.6c-0.4-1.4-0.6-2.7-0.6-3.9c0-1.1,0.1-2.3,0.2-3.6c0.1-1.3,0.3-2.1,0.3-2.6c0.1-0.5,0.2-0.8,0.3-1h4h0.1h38.6
	h15.1c2.4,0,4.5,0.5,6.2,1.6c1.7,1.1,2.8,2.3,3.5,3.6c0.7,1.3,1.1,2.8,1.3,4.6L468,413.6L468,413.6z M264.6,471.6L264.6,471.6
	c11.6,0,15.9-9.2,15.9-19.6v-33.8c0-0.1,0-0.2,0-0.3v-4c-0.1-2.7,0.3-4.9,1.3-6.7c1-1.8,2.4-3.1,4.3-3.8c1.9-0.8,3.9-1.3,6.1-1.5
	c2.2-0.2,4.8-0.2,7.8-0.1v6.7v23.4v20.7c0,23.2-11.2,37.4-35.5,37.4c-24.2,0-35.5-14.2-35.5-37.4v-20.7v-19.1v-10.9
	c3-0.2,5.6-0.2,7.8,0.1c2.2,0.2,4.2,0.7,6.1,1.5c1.9,0.8,3.3,2.1,4.3,3.8c1,1.8,1.4,4,1.3,6.7v8.6c0,0.1,0,0.2,0,0.4V452
	C248.7,462.4,253,471.6,264.6,471.6z"/>
</svg>
