<?xml version="1.0" encoding="utf-8"?>
<!-- Generator: Adobe Illustrator 17.1.0, SVG Export Plug-In . SVG Version: 6.00 Build 0)  -->
<!DOCTYPE svg PUBLIC "-//W3C//DTD SVG 1.1//EN" "http://www.w3.org/Graphics/SVG/1.1/DTD/svg11.dtd">
<svg version="1.1" id="Layer_1" xmlns="http://www.w3.org/2000/svg" xmlns:xlink="http://www.w3.org/1999/xlink" x="0px" y="0px"
	 viewBox="0 0 841.9 1190.6" enable-background="new 0 0 841.9 1190.6" xml:space="preserve">
<g>
	<circle fill="#FFFFFF" cx="238.7" cy="480.4" r="28.6"/>
	<circle fill="#FFFFFF" cx="592.3" cy="480.4" r="28.6"/>
	<path fill="#FFFFFF" d="M242.9,395.1c-47.2,0-85.4,38.3-85.4,85.4c0,47.1,37.9,85,85,85c47.2,0,85.4-38.2,85.4-85.4
		C328.3,433.3,290.1,395.4,242.9,395.1L242.9,395.1z M242.9,539.8c-32.7,0-59.2-26.5-59.2-59.2s26.5-59.2,59.2-59.2
		s58.9,26.1,58.9,59.2C302.1,513.3,275.7,539.4,242.9,539.8L242.9,539.8z M774.5,307.5H656.9c-60-40.4-141.9-65.6-235.9-65.6
		s-181.5,25.2-241.5,65.6H67.4c18.3,21,32,50.5,35.4,69.9c-21.2,29-33.7,64.7-33.7,103.3c0,96.8,79.1,176,176,176
		c55.2,0,104.4-25.4,136.6-65.1c13.2,15.2,35.4,46.3,39.6,55.3c0,0,25.3-37.8,39.5-55.2c32.3,39.6,81.7,64.8,136.4,64.8
		c97.2,0,176-78.8,176-176c0-38.6-12.5-74.3-33.7-103.3c3.2-19.8,16.9-48.4,34.6-69.8h0.4V307.5z M245,622.7
		c-78.3,0-141.7-63.4-141.7-141.7c0-78.2,63.4-141.7,141.7-141.7s141.4,63.1,141.4,141.4c0.3,78.8-63.5,142-141.8,142H245z
		 M245.2,305c50.4-21.9,112.9-33.8,175.8-33.8c63,0,120.4,11.8,170.1,33.7c-94.6,2.9-170.5,80.5-170.5,175.8
		c0.4-97.1-78.3-175.4-175.1-175.7L245.2,305L245.2,305z M597,622.7c-78.3,0-141.7-63.4-141.7-141.7c0-78.2,63.4-141.7,141.7-141.7
		c78.2,0,141.4,63.1,141.4,141.4c0.2,78.8-63.6,142-141.1,142H597z M596.9,394.7c-47.2,0-85.4,38.2-85.4,85.4c0,47.1,37.9,85,85,85
		c47.2,0,85.4-38.3,85.4-85.4c0.4-46.5-37.4-85.2-85.4-85.1L596.9,394.7L596.9,394.7z M596.9,539.4c-32.7,0-59.2-26.5-59.2-59.2
		s26.5-59.2,59.2-59.2c32.7,0,58.9,26.1,58.9,59.2c0.3,33.1-26.5,59.2-59.3,59.2H596.9z"/>
</g>
</svg>
