<?xml version="1.0" encoding="utf-8"?>
<!-- Generator: Adobe Illustrator 17.1.0, SVG Export Plug-In . SVG Version: 6.00 Build 0)  -->
<!DOCTYPE svg PUBLIC "-//W3C//DTD SVG 1.1//EN" "http://www.w3.org/Graphics/SVG/1.1/DTD/svg11.dtd">
<svg version="1.1" id="Layer_1" xmlns="http://www.w3.org/2000/svg" xmlns:xlink="http://www.w3.org/1999/xlink" x="0px" y="0px"
	 viewBox="0 0 841.9 595.3" enable-background="new 0 0 841.9 595.3" xml:space="preserve">
<path fill="#FADE95" d="M310.9,148.7c30.5-13.3,68.5-20.5,106.5-20.5s72.7,7.2,103.1,20.5c-57.3,1.8-103.1,48.9-103.1,106.5
	C417.3,196.3,369.7,148.7,310.9,148.7z"/>
<path fill="#AF1F37" d="M307.6,237.6c-9.6,0-17.5,7.8-17.5,17.5c0,9.6,7.8,17.5,17.5,17.5c9.6,0,17.5-7.8,17.5-17.5
	C325,245.2,317.2,237.6,307.6,237.6z"/>
<path fill="#5D5D5D" d="M524,237.3c-9.6,0-17.5,7.8-17.5,17.5s7.8,17.5,17.5,17.5s17.5-7.8,17.5-17.5S533.6,237.3,524,237.3z"/>
<g>
	<path fill="#010101" d="M310.3,203.3c-28.6,0-51.6,23.2-51.6,51.9s23.2,51.6,51.6,51.6c28.6,0,51.9-23.2,51.9-51.6
		C361.8,226.2,338.9,203.3,310.3,203.3z M310.3,290.7c-19.9,0-35.9-16-35.9-35.9s16-35.9,35.9-35.9c19.9,0,35.9,16,35.9,35.9
		S330.2,290.7,310.3,290.7z M632,150.2h-71.2c-36.2-24.4-85.9-39.8-142.6-39.8c-57,0-109.8,15.4-146.3,39.8h-67.9
		c11.2,13,19.3,30.5,21.4,42.5c-12.7,17.5-20.5,39.2-20.5,62.4c0,58.8,47.6,106.5,106.5,106.5c33.5,0,63.3-15.4,82.6-39.5
		c7.8,9.3,21.1,28,23.8,33.5c0,0,15.4-22.9,23.8-33.5c19.6,24.1,49.2,39.2,82.6,39.2c58.8,0,106.5-47.6,106.5-106.5
		c0-23.5-7.5-44.9-20.5-62.4C612.7,180.6,620.9,163.1,632,150.2z M311.5,340.8c-47.3,0-85.6-38.3-85.6-85.6s38.3-85.6,85.6-85.6
		s85.6,38.3,85.6,85.6C397.4,302.5,358.8,340.8,311.5,340.8z M311.8,148.7c30.5-13.3,68.5-20.5,106.5-20.5s72.7,7.2,103.1,20.5
		c-57.3,1.8-103.1,48.9-103.1,106.5C417.9,196.3,370.3,148.7,311.8,148.7z M524.7,340.8c-47.3,0-85.6-38.3-85.6-85.6
		s38.3-85.6,85.6-85.6s85.6,38.3,85.6,85.6S572,340.8,524.7,340.8z M524.7,203c-28.6,0-51.6,23.2-51.6,51.9
		c0,28.6,23.2,51.6,51.6,51.6c28.6,0,51.6-23.2,51.6-51.6C576.2,226.2,553,203,524.7,203z M524.7,290.4c-19.9,0-35.9-16-35.9-35.9
		s16-35.9,35.9-35.9s35.9,16,35.9,35.9C560.3,274.4,544.3,290.4,524.7,290.4z"/>
	<g>
		<g>
			<path d="M656.2,167.4h-3.6v-14.2h5.1c2.4,0,5.7,0.3,5.7,4.2c0,1.8-0.9,3.3-3,3.6l3.3,6.3h-3.6l-3-5.7h-1.2v5.7H656.2z
				 M656.2,159.2c1.8,0,2.1,0,2.7-0.3c1.2-0.3,1.2-1.2,1.2-1.8c0-0.9-0.3-1.5-0.9-1.8c-0.6-0.3-0.9-0.3-2.7-0.3v4.2H656.2z"/>
		</g>
		<path d="M658.3,147.8c-7.2,0-13,5.7-13,13s5.7,13,13,13c7.2,0,13-5.7,13-13S665.2,147.8,658.3,147.8z M658.3,171.3
			c-5.7,0-10.6-4.8-10.6-10.6c0-5.7,4.8-10.6,10.6-10.6s10.6,4.8,10.6,10.6C668.8,166.5,664,171.3,658.3,171.3z"/>
	</g>
</g>
<g>
	<g>
		<path fill="#639447" d="M744.2,462.3h-3.3v-14.2h5.1c2.4,0,5.7,0.3,5.7,4.2c0,1.8-0.9,3-3,3.6l3.3,6.3h-3.6l-3-5.7h-1.2V462.3z
			 M744.2,454.1c1.8,0,2.1,0,2.7-0.3c1.2-0.3,1.2-1.2,1.2-1.8c0-0.9-0.3-1.5-0.9-1.8c-0.6-0.3-0.9-0.3-2.7-0.3v4.2H744.2z"/>
	</g>
	<path fill="#639447" d="M746.6,442.7c-7.2,0-13,5.7-13,13c0,7.2,5.7,13,13,13c7.2,0,13-5.7,13-13
		C759.3,448.7,753.6,442.7,746.6,442.7z M746.6,466.2c-5.7,0-10.6-4.8-10.6-10.6c0-5.7,4.8-10.6,10.6-10.6s10.6,4.8,10.6,10.6
		C756.9,461.4,752.4,466.2,746.6,466.2z"/>
</g>
<path d="M126.3,460.2v-11.8h-19v-17.5l-14.8,4.2v13.3H81.4v11.8h11.2v37.4c0,16.6,6.9,25,20.2,25c4.8,0,9-0.6,12.4-1.8l0.3-0.3
	l-0.6-11.5l-0.6,0.3c-1.8,0.6-4.5,0.9-7.5,0.9c-3.3,0-5.7-0.9-7.2-3s-2.4-5.7-2.4-10.3v-36.5h19.3V460.2z"/>
<path d="M176.7,447.2c-1.5-0.3-2.7-0.3-3.9-0.3c-4.5,0-8.7,1.5-12.7,4.2c-3.3,2.4-5.7,5.7-7.5,9.6l-0.9-12.4h-13.3v0.6
	c0.3,5.7,0.6,13.6,0.6,22.6v49.5h15.1v-38.3c0-6.9,1.8-12.4,5.1-16.3c3.3-3.6,7.5-5.7,12.4-5.7c1.8,0,3.3,0,4.5,0.3l0.6,0.3V447.2
	L176.7,447.2z"/>
<g>
	<rect x="190.3" y="448.4" width="15.1" height="72.7"/>
	<path d="M197.8,436.7c2.7,0,5.1-0.9,6.9-2.7c1.8-1.8,2.7-3.9,2.7-6.6c0-2.7-0.9-4.8-2.7-6.6c-1.8-1.8-3.9-2.7-6.6-2.7
		s-5.1,0.9-6.9,2.7c-1.8,1.8-2.7,3.9-2.7,6.6c0,2.7,0.9,4.8,2.7,6.6C192.7,435.8,195.1,436.7,197.8,436.7z"/>
</g>
<path d="M278,456.9c-5.7-6.9-13.3-10.6-22-10.6c-10.6,0-19,4.2-24.7,12.4l-0.6-10.9h-13.6v0.9c0.3,6,0.6,13.9,0.6,23.5v78.1h15.1
	v-37.1c2.1,2.7,4.8,4.8,7.8,6.6c3.9,2.1,8.4,3,13.3,3c9.3,0,17.2-3.6,23.5-10.9c6.3-7.2,9.3-16.9,9.3-28.6
	C286.8,472.8,283.7,463.8,278,456.9z M241.2,462.9c3.3-2.4,6.6-3.3,10.6-3.3c6,0,10.6,2.4,14.2,6.9c3.6,4.8,5.4,10.9,5.4,17.8
	c0,8.1-1.8,14.5-5.4,19.3c-3.6,4.8-8.4,6.9-14.8,6.9c-5.1,0-9.3-1.8-13-5.7c-3.6-3.6-5.4-8.4-5.4-13.9v-11.5c0-2.1,0.6-4.8,1.8-8.1
	C235.8,468,237.9,465.3,241.2,462.9z"/>
<path fill="#639447" d="M353.4,520.5c-0.9-4.2-1.2-10-1.2-16.9v-26.2c0-9.6-2.4-17.5-7.2-22.6c-4.8-5.1-12.1-7.8-21.4-7.8
	c-9.6,0-18.1,2.1-25,6.6l-0.3,0.3l3.6,10.3l0.6-0.3c5.7-3.6,12.1-5.4,19.3-5.4c5.1,0,9.3,1.5,12.1,4.2s3.9,6.6,3.9,11.5v0.6
	c-14.2,0-25.3,2.4-32.6,6.9c-7.5,4.5-11.5,11.5-11.5,20.5c0,5.7,2.1,10.9,6.3,14.8c4.2,4.2,10,6.3,16.6,6.3c9.3,0,16.9-3.3,22.3-10
	l1.5,8.4h13.9L353.4,520.5z M332.6,506.6c-3.3,3-7.8,4.8-12.7,4.8c-3.6,0-6.3-0.9-8.4-3s-3.3-4.8-3.3-8.4c0-4.5,2.1-8.1,6.3-10.9
	c4.2-2.7,12.1-3.9,22.9-3.9v11.2C337.7,500,335.9,503.6,332.6,506.6z"/>
<path fill="#639447" d="M429.1,521.4v-0.9c-0.3-4.5-0.6-10.9-0.6-18.7v-87.5h-15.1v41c-2.1-2.4-4.5-4.2-7.2-5.7
	c-3.9-2.1-8.4-3-13.3-3c-9,0-16.9,3.6-23.2,11.2c-6,7.2-9.3,16.9-9.3,28.3c0,10.6,3,19.6,8.7,26.5c6,6.9,13.3,10.6,22.3,10.6
	c5.4,0,10.6-1.2,14.8-3.9c3.3-2.1,6.3-4.8,8.4-8.1l0.9,10.6h13.6V521.4z M413.4,478.6V490c0,6-1.8,11.2-5.4,14.8
	c-3.6,3.6-7.8,5.4-12.7,5.4c-6.3,0-11.2-2.4-14.5-6.9c-3.6-4.8-5.4-10.9-5.4-18.1c0-7.8,1.8-14.2,5.7-18.7c3.6-4.8,8.4-6.9,14.5-6.9
	c4.8,0,9,1.8,12.7,5.4C411.6,468,413.4,472.8,413.4,478.6z"/>
<path fill="#639447" d="M490.3,448.4c0,0-18.7,38-19.9,42.2c-1.8-5.1-20.2-42.2-20.2-42.2h-16.3l36.5,72.7l35.9-72.7H490.3z"/>
<g>
	<rect x="513.5" y="448.4" fill="#639447" width="15.1" height="72.7"/>
	<path fill="#639447" d="M520.8,436.7c2.7,0,5.1-0.9,6.9-2.7c1.8-1.8,2.7-3.9,2.7-6.6c0-2.7-0.9-4.8-2.7-6.6
		c-1.8-1.8-3.9-2.7-6.6-2.7c-2.7,0-5.1,0.9-6.9,2.7c-1.8,1.8-2.7,3.9-2.7,6.6c0,2.7,0.9,4.8,2.7,6.6
		C515.9,435.8,518,436.7,520.8,436.7z"/>
</g>
<path fill="#639447" d="M587.4,487.3c-3-3.3-8.1-6.3-15.1-9c-5.4-2.1-9.3-3.9-10.9-5.4c-1.8-1.5-2.4-3.6-2.4-6c0-2.7,0.9-4.8,3-6.3
	c2.1-1.8,4.8-2.4,8.1-2.4c5.1,0,10.3,1.5,15.1,4.2l0.6,0.3l3.9-11.2l-0.3-0.3c-5.1-3-11.5-4.5-18.7-4.5c-7.8,0-14.2,2.1-19,6.3
	c-4.8,4.2-7.2,9.3-7.2,15.7c0,9.3,6.6,16.3,19.9,20.8c4.8,1.5,8.4,3.3,10.3,5.1c1.8,1.8,2.7,3.9,2.7,6.9s-1.2,5.4-3.3,6.9
	c-2.4,1.8-5.7,2.7-10,2.7c-6,0-12.1-1.8-17.8-5.1l-0.6-0.3l-3.6,11.8l0.3,0.3c6.3,3.3,13.3,5.1,21.1,5.1c8.7,0,15.4-2.1,20.5-6
	c5.1-4.2,7.5-9.6,7.5-16.3C591.9,495.2,590.4,490.9,587.4,487.3z"/>
<path fill="#639447" d="M660.4,457.2c-6.3-6.9-14.8-10.6-25-10.6c-10.3,0-19,3.6-25.6,10.6c-6.6,6.9-10.3,16.3-10.3,28
	c0,10.9,3.3,19.9,10,26.8c6.6,6.9,15.1,10.6,25,10.6c6.3,0,12.4-1.5,18.1-4.8c5.4-3,10-7.5,13-13.6c3-5.7,4.5-12.7,4.5-20.5
	C670,473.1,666.7,464.1,660.4,457.2z M634.4,511.4c-5.7,0-10.6-2.4-14.5-7.5c-3.9-4.8-5.7-11.5-5.7-19c0-7.5,1.8-14.2,5.7-19.3
	c3.6-5.1,8.7-7.5,15.1-7.5c6.3,0,11.2,2.7,14.8,7.5c3.6,5.1,5.4,11.5,5.4,18.7c0,7.8-2.1,14.5-6,19.3
	C645.3,508.7,640.5,511.4,634.4,511.4z"/>
<path fill="#639447" d="M720.1,447.2c-1.5-0.3-2.7-0.3-3.9-0.3c-4.5,0-8.7,1.5-12.7,4.2c-3.3,2.4-5.7,5.7-7.5,9.6l-0.9-12.4h-13.3
	v0.6c0.3,5.7,0.6,13.6,0.6,22.6v49.5h15.1v-38.3c0-6.9,1.8-12.4,5.1-16.3c3.3-3.6,7.5-5.7,12.4-5.7c1.8,0,3.3,0,4.5,0.3l0.6,0.3
	V447.2L720.1,447.2z"/>
</svg>
